<svg width="180" height="40" viewBox="0 0 180 40" fill="none" xmlns="http://www.w3.org/2000/svg">
  <!-- L -->
  <rect x="2" y="8" width="4" height="24" fill="#FFFFFF" rx="1"/>
  <rect x="2" y="28" width="12" height="4" fill="#FFFFFF" rx="1"/>
  
  <!-- U -->
  <rect x="18" y="8" width="4" height="20" fill="#FFFFFF" rx="1"/>
  <rect x="18" y="28" width="12" height="4" fill="#FFFFFF" rx="1"/>
  <rect x="26" y="8" width="4" height="24" fill="#FFFFFF" rx="1"/>
  
  <!-- K -->
  <rect x="34" y="8" width="4" height="24" fill="#FFFFFF" rx="1"/>
  <rect x="38" y="18" width="8" height="4" fill="#0EA5E9" rx="1"/>
  <rect x="42" y="8" width="4" height="12" fill="#FFFFFF" rx="1" transform="rotate(30 44 14)"/>
  <rect x="42" y="20" width="4" height="12" fill="#FFFFFF" rx="1" transform="rotate(-30 44 26)"/>
  
  <!-- E -->
  <rect x="52" y="8" width="4" height="24" fill="#FFFFFF" rx="1"/>
  <rect x="52" y="8" width="12" height="4" fill="#FFFFFF" rx="1"/>
  <rect x="52" y="18" width="10" height="4" fill="#0EA5E9" rx="1"/>
  <rect x="52" y="28" width="12" height="4" fill="#FFFFFF" rx="1"/>
  
  <!-- Forge -->
  <text x="70" y="26" font-family="Inter, sans-serif" font-size="18" font-weight="600" fill="#FFFFFF">FORGE</text>
</svg>
